<svg width="84" height="85" viewBox="0 0 84 85" fill="none" xmlns="http://www.w3.org/2000/svg">
<g filter="url(#filter0_d_6016_585)">
<rect x="19" y="16" width="45" height="45" rx="4" fill="white"/>
<path opacity="0.4" d="M42 39C44.7614 39 47 36.7614 47 34C47 31.2386 44.7614 29 42 29C39.2386 29 37 31.2386 37 34C37 36.7614 39.2386 39 42 39Z" fill="#292D32"/>
<path d="M42.0002 41.5C36.9902 41.5 32.9102 44.86 32.9102 49C32.9102 49.28 33.1302 49.5 33.4102 49.5H50.5901C50.8701 49.5 51.0901 49.28 51.0901 49C51.0901 44.86 47.0102 41.5 42.0002 41.5Z" fill="#292D32"/>
</g>
<defs>
<filter id="filter0_d_6016_585" x="-1" y="0" width="85" height="85" filterUnits="userSpaceOnUse" color-interpolation-filters="sRGB">
<feFlood flood-opacity="0" result="BackgroundImageFix"/>
<feColorMatrix in="SourceAlpha" type="matrix" values="0 0 0 0 0 0 0 0 0 0 0 0 0 0 0 0 0 0 127 0" result="hardAlpha"/>
<feOffset dy="4"/>
<feGaussianBlur stdDeviation="10"/>
<feComposite in2="hardAlpha" operator="out"/>
<feColorMatrix type="matrix" values="0 0 0 0 0.679167 0 0 0 0 0.66879 0 0 0 0 0.66879 0 0 0 0.25 0"/>
<feBlend mode="normal" in2="BackgroundImageFix" result="effect1_dropShadow_6016_585"/>
<feBlend mode="normal" in="SourceGraphic" in2="effect1_dropShadow_6016_585" result="shape"/>
</filter>
</defs>
</svg>
