<svg width="20" height="20" viewBox="0 0 20 20" fill="none" xmlns="http://www.w3.org/2000/svg">
<path opacity="0.4" d="M7.5 6.00033V13.992C7.5 16.667 9.16667 18.3337 11.8333 18.3337H13.9917C16.6583 18.3337 18.325 16.667 18.325 14.0003V6.00033C18.3333 3.33366 16.6667 1.66699 14 1.66699H11.8333C9.16667 1.66699 7.5 3.33366 7.5 6.00033Z" fill="#6C757D"/>
<path d="M10.3587 6.7666L13.1503 9.55827C13.392 9.79994 13.392 10.1999 13.1503 10.4416L10.3587 13.2333C10.117 13.4749 9.71699 13.4749 9.47533 13.2333C9.23366 12.9916 9.23366 12.5916 9.47533 12.3499L11.2003 10.6249H2.29199C1.95033 10.6249 1.66699 10.3416 1.66699 9.99994C1.66699 9.65827 1.95033 9.37494 2.29199 9.37494H11.2003L9.47533 7.64994C9.35033 7.52494 9.29199 7.3666 9.29199 7.20827C9.29199 7.04993 9.35033 6.8916 9.47533 6.7666C9.71699 6.5166 10.1087 6.5166 10.3587 6.7666Z" fill="#6C757D"/>
</svg>
